<svg xmlns="http://www.w3.org/2000/svg" xmlns:xlink="http://www.w3.org/1999/xlink" width="50" zoomAndPan="magnify" viewBox="0 0 37.5 37.499999" height="50" preserveAspectRatio="xMidYMid meet" version="1.2"><defs><clipPath id="83764b6977"><path d="M 11.324219 11.101562 L 25.386719 11.101562 L 25.386719 25.90625 L 11.324219 25.90625 Z M 11.324219 11.101562 "/></clipPath></defs><g id="bfd75966a3"><g clip-rule="nonzero" clip-path="url(#83764b6977)"><path style=" stroke:none;fill-rule:nonzero;fill:#ffffff;fill-opacity:1;" d="M 25.101562 24.441406 L 21.625 21.105469 C 22.65625 20 23.222656 18.566406 23.222656 17.050781 C 23.222656 15.53125 22.601562 13.96875 21.480469 12.84375 C 20.355469 11.71875 18.863281 11.101562 17.277344 11.101562 C 15.6875 11.101562 14.195312 11.71875 13.070312 12.84375 C 11.945312 13.96875 11.328125 15.460938 11.328125 17.050781 C 11.328125 18.636719 11.945312 20.128906 13.070312 21.253906 C 14.195312 22.378906 15.6875 22.996094 17.277344 22.996094 C 18.472656 22.996094 19.617188 22.644531 20.589844 21.988281 L 24.160156 25.421875 C 24.289062 25.542969 24.453125 25.609375 24.628906 25.609375 C 24.804688 25.609375 24.992188 25.535156 25.121094 25.402344 C 25.378906 25.132812 25.371094 24.699219 25.101562 24.441406 Z M 19.886719 20.953125 C 19.140625 21.453125 18.242188 21.746094 17.277344 21.746094 C 14.679688 21.746094 12.578125 19.644531 12.578125 17.050781 C 12.578125 14.457031 14.679688 12.351562 17.277344 12.351562 C 19.871094 12.351562 21.972656 14.457031 21.972656 17.050781 C 21.972656 18.335938 21.453125 19.5 20.617188 20.347656 C 20.394531 20.574219 20.152344 20.777344 19.886719 20.953125 Z M 19.886719 20.953125 "/></g></g></svg>