<svg xmlns="http://www.w3.org/2000/svg" xmlns:xlink="http://www.w3.org/1999/xlink" width="50" zoomAndPan="magnify" viewBox="0 0 37.5 37.499999" height="50" preserveAspectRatio="xMidYMid meet" version="1.2"><defs><clipPath id="a4faee2efe"><path d="M 7.761719 7.402344 L 29 7.402344 L 29 29.605469 L 7.761719 29.605469 Z M 7.761719 7.402344 "/></clipPath></defs><g id="72ce344b1d"><path style=" stroke:none;fill-rule:nonzero;fill:#004aad;fill-opacity:1;" d="M 11.03125 20.765625 C 10.832031 20.765625 10.667969 20.929688 10.667969 21.128906 L 10.667969 22.945312 C 10.667969 23.148438 10.832031 23.308594 11.03125 23.308594 C 11.230469 23.308594 11.394531 23.148438 11.394531 22.945312 L 11.394531 21.128906 C 11.394531 20.929688 11.230469 20.765625 11.03125 20.765625 Z M 11.03125 20.765625 "/><path style=" stroke:none;fill-rule:nonzero;fill:#004aad;fill-opacity:1;" d="M 15.390625 25.488281 L 10.304688 25.488281 C 10.105469 25.488281 9.941406 25.652344 9.941406 25.851562 C 9.941406 26.050781 10.105469 26.214844 10.304688 26.214844 L 10.667969 26.214844 L 10.667969 28.03125 C 10.667969 28.152344 10.726562 28.265625 10.828125 28.332031 C 10.925781 28.398438 11.054688 28.414062 11.164062 28.367188 L 12.847656 27.695312 L 14.527344 28.367188 C 14.640625 28.414062 14.765625 28.398438 14.867188 28.332031 C 14.964844 28.265625 15.027344 28.152344 15.027344 28.03125 L 15.027344 26.214844 L 15.390625 26.214844 C 15.863281 26.210938 15.863281 25.492188 15.390625 25.488281 Z M 14.300781 27.496094 C 14.226562 27.476562 12.890625 26.902344 12.847656 26.941406 C 12.804688 26.902344 11.460938 27.476562 11.394531 27.496094 L 11.394531 26.214844 L 14.300781 26.214844 Z M 14.300781 27.496094 "/><g clip-rule="nonzero" clip-path="url(#a4faee2efe)"><path style=" stroke:none;fill-rule:nonzero;fill:#004aad;fill-opacity:1;" d="M 26.367188 18.6875 C 28.085938 16.230469 27.5 12.457031 25.195312 10.621094 L 25.195312 9.507812 C 25.195312 8.507812 24.378906 7.691406 23.378906 7.691406 L 9.578125 7.691406 C 8.578125 7.691406 7.761719 8.507812 7.761719 9.507812 L 7.761719 27.667969 C 7.761719 28.667969 8.578125 29.484375 9.578125 29.484375 L 24.832031 29.484375 C 25.300781 29.476562 25.308594 28.761719 24.832031 28.757812 C 24.832031 28.757812 24.105469 28.757812 24.105469 28.757812 L 24.105469 25.125 L 24.832031 25.125 C 25.03125 25.125 25.195312 24.960938 25.195312 24.761719 L 25.195312 21.113281 L 26.292969 22.210938 C 27.515625 23.355469 29.238281 21.636719 28.089844 20.414062 C 28.089844 20.414062 26.367188 18.6875 26.367188 18.6875 Z M 26.648438 15.320312 C 26.648438 18.324219 24.203125 20.765625 21.199219 20.765625 C 13.972656 20.46875 13.976562 10.171875 21.199219 9.871094 C 24.203125 9.871094 26.648438 12.316406 26.648438 15.320312 Z M 23.378906 28.757812 L 9.578125 28.757812 C 8.976562 28.757812 8.488281 28.269531 8.488281 27.667969 L 8.488281 26.214844 C 8.488281 25.613281 8.976562 25.125 9.578125 25.125 L 23.378906 25.125 Z M 9.578125 24.398438 C 9.167969 24.398438 8.792969 24.539062 8.488281 24.769531 L 8.488281 9.507812 C 8.488281 8.90625 8.976562 8.417969 9.578125 8.417969 L 10.667969 8.417969 L 10.667969 19.316406 C 10.667969 19.515625 10.832031 19.675781 11.03125 19.675781 C 11.230469 19.675781 11.394531 19.515625 11.394531 19.316406 L 11.394531 8.417969 L 23.378906 8.417969 C 23.980469 8.417969 24.46875 8.90625 24.46875 9.507812 L 24.46875 10.089844 C 20.488281 7.496094 14.957031 10.539062 15.027344 15.320312 C 14.957031 20.097656 20.488281 23.144531 24.46875 20.546875 L 24.46875 24.398438 Z M 27.578125 21.695312 C 27.367188 21.910156 27.019531 21.90625 26.804688 21.699219 L 25.160156 20.050781 C 25.441406 19.816406 25.699219 19.558594 25.929688 19.277344 L 27.578125 20.925781 C 27.789062 21.136719 27.789062 21.484375 27.578125 21.695312 Z M 27.578125 21.695312 "/></g><path style=" stroke:none;fill-rule:nonzero;fill:#004aad;fill-opacity:1;" d="M 21.199219 10.597656 C 18.597656 10.597656 16.476562 12.714844 16.476562 15.320312 C 16.445312 19.363281 21.386719 21.546875 24.335938 18.835938 C 27.550781 16.011719 25.527344 10.59375 21.199219 10.597656 Z M 21.199219 19.316406 C 18.996094 19.316406 17.203125 17.523438 17.203125 15.320312 C 17.425781 10.019531 24.976562 10.019531 25.195312 15.320312 C 25.195312 17.523438 23.402344 19.316406 21.199219 19.316406 Z M 21.199219 19.316406 "/><path style=" stroke:none;fill-rule:nonzero;fill:#004aad;fill-opacity:1;" d="M 22.652344 12.777344 L 19.746094 12.777344 C 19.273438 12.777344 19.269531 13.5 19.746094 13.503906 C 19.746094 13.503906 22.652344 13.503906 22.652344 13.503906 C 23.125 13.5 23.128906 12.78125 22.652344 12.777344 Z M 22.652344 12.777344 "/><path style=" stroke:none;fill-rule:nonzero;fill:#004aad;fill-opacity:1;" d="M 22.652344 14.230469 L 19.746094 14.230469 C 19.273438 14.230469 19.269531 14.953125 19.746094 14.957031 C 19.746094 14.957031 22.652344 14.957031 22.652344 14.957031 C 23.125 14.953125 23.128906 14.230469 22.652344 14.230469 Z M 22.652344 14.230469 "/><path style=" stroke:none;fill-rule:nonzero;fill:#004aad;fill-opacity:1;" d="M 22.652344 15.683594 L 19.746094 15.683594 C 19.273438 15.683594 19.269531 16.40625 19.746094 16.410156 C 19.746094 16.410156 22.652344 16.410156 22.652344 16.410156 C 23.125 16.40625 23.128906 15.683594 22.652344 15.683594 Z M 22.652344 15.683594 "/><path style=" stroke:none;fill-rule:nonzero;fill:#004aad;fill-opacity:1;" d="M 22.652344 17.136719 L 19.746094 17.136719 C 19.273438 17.136719 19.269531 17.859375 19.746094 17.863281 C 19.746094 17.863281 22.652344 17.863281 22.652344 17.863281 C 23.125 17.859375 23.128906 17.136719 22.652344 17.136719 Z M 22.652344 17.136719 "/></g></svg>