<svg xmlns="http://www.w3.org/2000/svg" xmlns:xlink="http://www.w3.org/1999/xlink" width="50" zoomAndPan="magnify" viewBox="0 0 37.5 37.499999" height="50" preserveAspectRatio="xMidYMid meet" version="1.2"><defs><clipPath id="45c7c3e7fc"><path d="M 2.21875 0 L 37 0 L 37 37 L 2.21875 37 Z M 2.21875 0 "/></clipPath></defs><g id="f21298894c"><path style=" stroke:none;fill-rule:nonzero;fill:#0454c1;fill-opacity:1;" d="M 7.628906 22.117188 C 7.296875 22.117188 7.03125 22.386719 7.03125 22.71875 L 7.03125 25.722656 C 7.03125 26.054688 7.296875 26.324219 7.628906 26.324219 C 7.960938 26.324219 8.230469 26.054688 8.230469 25.722656 L 8.230469 22.71875 C 8.230469 22.386719 7.960938 22.117188 7.628906 22.117188 Z M 7.628906 22.117188 "/><path style=" stroke:none;fill-rule:nonzero;fill:#0454c1;fill-opacity:1;" d="M 14.84375 29.929688 L 6.429688 29.929688 C 6.097656 29.929688 5.828125 30.199219 5.828125 30.53125 C 5.828125 30.863281 6.097656 31.132812 6.429688 31.132812 L 7.03125 31.132812 L 7.03125 34.140625 C 7.03125 34.339844 7.128906 34.523438 7.292969 34.636719 C 7.457031 34.75 7.667969 34.773438 7.855469 34.699219 L 10.636719 33.585938 L 13.417969 34.699219 C 13.601562 34.769531 13.8125 34.75 13.980469 34.636719 C 14.144531 34.523438 14.242188 34.339844 14.242188 34.140625 L 14.242188 31.132812 L 14.84375 31.132812 C 15.628906 31.128906 15.628906 29.933594 14.84375 29.929688 Z M 13.039062 33.25 C 12.921875 33.222656 10.707031 32.269531 10.636719 32.335938 C 10.570312 32.269531 8.34375 33.226562 8.230469 33.25 L 8.230469 31.132812 L 13.039062 31.132812 Z M 13.039062 33.25 "/><g clip-rule="nonzero" clip-path="url(#45c7c3e7fc)"><path style=" stroke:none;fill-rule:nonzero;fill:#0454c1;fill-opacity:1;" d="M 33.015625 18.675781 C 35.859375 14.609375 34.886719 8.359375 31.074219 5.324219 L 31.074219 3.480469 C 31.074219 1.824219 29.726562 0.476562 28.070312 0.476562 L 5.226562 0.476562 C 3.570312 0.476562 2.21875 1.824219 2.21875 3.480469 L 2.21875 33.539062 C 2.21875 35.195312 3.570312 36.542969 5.226562 36.542969 L 30.472656 36.542969 C 31.253906 36.53125 31.265625 35.351562 30.472656 35.339844 C 30.472656 35.339844 29.269531 35.339844 29.269531 35.339844 L 29.269531 29.332031 L 30.472656 29.332031 C 30.804688 29.332031 31.074219 29.0625 31.074219 28.730469 L 31.074219 22.691406 L 32.894531 24.507812 C 34.914062 26.402344 37.769531 23.554688 35.871094 21.53125 C 35.871094 21.53125 33.015625 18.675781 33.015625 18.675781 Z M 33.480469 13.101562 C 33.480469 18.070312 29.433594 22.117188 24.460938 22.117188 C 12.5 21.621094 12.503906 4.578125 24.460938 4.082031 C 29.433594 4.082031 33.480469 8.128906 33.480469 13.101562 Z M 28.070312 35.339844 L 5.226562 35.339844 C 4.230469 35.339844 3.421875 34.53125 3.421875 33.539062 L 3.421875 31.132812 C 3.421875 30.140625 4.230469 29.332031 5.226562 29.332031 L 28.070312 29.332031 Z M 5.226562 28.128906 C 4.546875 28.128906 3.925781 28.363281 3.421875 28.746094 L 3.421875 3.480469 C 3.421875 2.488281 4.230469 1.679688 5.226562 1.679688 L 7.03125 1.679688 L 7.03125 19.710938 C 7.03125 20.042969 7.296875 20.3125 7.628906 20.3125 C 7.960938 20.3125 8.230469 20.042969 8.230469 19.710938 L 8.230469 1.679688 L 28.070312 1.679688 C 29.0625 1.679688 29.871094 2.488281 29.871094 3.480469 L 29.871094 4.445312 C 23.28125 0.148438 14.128906 5.1875 14.242188 13.101562 C 14.128906 21.011719 23.285156 26.054688 29.871094 21.753906 L 29.871094 28.128906 Z M 35.019531 23.65625 C 34.667969 24.007812 34.09375 24.003906 33.742188 23.65625 L 31.019531 20.929688 C 31.480469 20.542969 31.90625 20.113281 32.292969 19.652344 L 35.015625 22.378906 C 35.367188 22.730469 35.367188 23.304688 35.019531 23.65625 Z M 35.019531 23.65625 "/></g><path style=" stroke:none;fill-rule:nonzero;fill:#0454c1;fill-opacity:1;" d="M 24.460938 5.285156 C 20.152344 5.285156 16.648438 8.789062 16.648438 13.101562 C 16.59375 19.792969 24.769531 23.410156 29.65625 18.921875 C 34.972656 14.242188 31.625 5.28125 24.460938 5.285156 Z M 24.460938 19.710938 C 20.816406 19.710938 17.847656 16.746094 17.847656 13.101562 C 18.210938 4.328125 30.710938 4.332031 31.074219 13.101562 C 31.074219 16.746094 28.109375 19.710938 24.460938 19.710938 Z M 24.460938 19.710938 "/><path style=" stroke:none;fill-rule:nonzero;fill:#0454c1;fill-opacity:1;" d="M 26.867188 8.890625 L 22.058594 8.890625 C 21.273438 8.894531 21.269531 10.089844 22.058594 10.09375 C 22.058594 10.09375 26.867188 10.09375 26.867188 10.09375 C 27.652344 10.089844 27.652344 8.894531 26.867188 8.890625 Z M 26.867188 8.890625 "/><path style=" stroke:none;fill-rule:nonzero;fill:#0454c1;fill-opacity:1;" d="M 26.867188 11.296875 L 22.058594 11.296875 C 21.273438 11.300781 21.269531 12.496094 22.058594 12.5 C 22.058594 12.5 26.867188 12.5 26.867188 12.5 C 27.652344 12.496094 27.652344 11.300781 26.867188 11.296875 Z M 26.867188 11.296875 "/><path style=" stroke:none;fill-rule:nonzero;fill:#0454c1;fill-opacity:1;" d="M 26.867188 13.699219 L 22.058594 13.699219 C 21.273438 13.703125 21.269531 14.898438 22.058594 14.902344 C 22.058594 14.902344 26.867188 14.902344 26.867188 14.902344 C 27.652344 14.898438 27.652344 13.703125 26.867188 13.699219 Z M 26.867188 13.699219 "/><path style=" stroke:none;fill-rule:nonzero;fill:#0454c1;fill-opacity:1;" d="M 26.867188 16.105469 L 22.058594 16.105469 C 21.273438 16.109375 21.269531 17.304688 22.058594 17.308594 C 22.058594 17.308594 26.867188 17.308594 26.867188 17.308594 C 27.652344 17.304688 27.652344 16.109375 26.867188 16.105469 Z M 26.867188 16.105469 "/></g></svg>