<svg xmlns="http://www.w3.org/2000/svg" xmlns:xlink="http://www.w3.org/1999/xlink" width="50" zoomAndPan="magnify" viewBox="0 0 37.5 37.499999" height="50" preserveAspectRatio="xMidYMid meet" version="1.2"><defs><clipPath id="62b1a8132e"><path d="M 11.304688 11.101562 L 25.367188 11.101562 L 25.367188 25.90625 L 11.304688 25.90625 Z M 11.304688 11.101562 "/></clipPath></defs><g id="056fb7676a"><g clip-rule="nonzero" clip-path="url(#62b1a8132e)"><path style=" stroke:none;fill-rule:nonzero;fill:#004aad;fill-opacity:1;" d="M 18.71875 24.945312 C 18.886719 24.945312 19.023438 25.082031 19.023438 25.25 C 19.023438 25.402344 18.910156 25.527344 18.761719 25.546875 L 18.71875 25.550781 L 17.914062 25.550781 C 17.746094 25.550781 17.609375 25.414062 17.609375 25.25 C 17.609375 25.097656 17.726562 24.96875 17.871094 24.949219 L 17.914062 24.945312 Z M 19.527344 24.140625 C 19.691406 24.140625 19.828125 24.277344 19.828125 24.441406 C 19.828125 24.597656 19.714844 24.722656 19.566406 24.742188 L 19.527344 24.746094 L 17.109375 24.746094 C 16.941406 24.746094 16.804688 24.609375 16.804688 24.441406 C 16.804688 24.289062 16.917969 24.164062 17.066406 24.144531 L 17.109375 24.140625 Z M 19.929688 23.335938 C 20.097656 23.335938 20.230469 23.46875 20.230469 23.636719 C 20.230469 23.789062 20.117188 23.917969 19.96875 23.9375 L 16.703125 23.9375 C 16.539062 23.9375 16.402344 23.804688 16.402344 23.636719 C 16.402344 23.484375 16.515625 23.355469 16.664062 23.335938 Z M 18.316406 14.0625 C 20.488281 14.0625 22.246094 15.824219 22.246094 17.992188 C 22.246094 18.921875 21.695312 19.921875 20.613281 21.011719 C 20.386719 21.234375 20.253906 21.535156 20.234375 21.847656 L 20.230469 21.933594 L 20.230469 22.628906 C 20.230469 22.890625 20.03125 23.105469 19.777344 23.128906 L 19.726562 23.132812 L 16.90625 23.132812 C 16.644531 23.132812 16.429688 22.933594 16.40625 22.679688 L 16.402344 22.628906 L 16.402344 21.933594 C 16.402344 21.589844 16.265625 21.257812 16.019531 21.011719 C 14.9375 19.921875 14.386719 18.921875 14.386719 17.992188 C 14.386719 15.824219 16.144531 14.0625 18.316406 14.0625 Z M 14.699219 21.273438 C 14.808594 21.382812 14.816406 21.550781 14.726562 21.667969 L 14.699219 21.699219 L 13.84375 22.554688 C 13.726562 22.671875 13.535156 22.671875 13.417969 22.554688 C 13.308594 22.445312 13.300781 22.277344 13.390625 22.160156 L 13.417969 22.128906 L 14.273438 21.273438 C 14.390625 21.15625 14.582031 21.15625 14.699219 21.273438 Z M 22.363281 21.246094 L 22.394531 21.273438 L 23.25 22.128906 C 23.367188 22.246094 23.367188 22.4375 23.25 22.554688 C 23.140625 22.664062 22.972656 22.671875 22.851562 22.582031 L 21.96875 21.699219 C 21.847656 21.582031 21.847656 21.390625 21.96875 21.273438 C 22.074219 21.164062 22.246094 21.15625 22.363281 21.246094 Z M 18.316406 14.667969 C 16.480469 14.667969 14.992188 16.15625 14.992188 17.992188 C 14.992188 18.730469 15.46875 19.597656 16.449219 20.585938 C 16.78125 20.917969 16.980469 21.363281 17.003906 21.832031 L 17.007812 21.933594 L 17.007812 22.527344 L 19.625 22.527344 L 19.625 21.933594 C 19.625 21.496094 19.777344 21.074219 20.050781 20.734375 L 20.113281 20.65625 L 20.183594 20.585938 C 21.164062 19.597656 21.640625 18.730469 21.640625 17.992188 C 21.640625 16.15625 20.152344 14.667969 18.316406 14.667969 Z M 12.894531 17.335938 C 13.058594 17.335938 13.195312 17.472656 13.195312 17.640625 C 13.195312 17.792969 13.082031 17.917969 12.933594 17.9375 L 12.894531 17.941406 L 11.683594 17.941406 C 11.515625 17.941406 11.382812 17.804688 11.382812 17.640625 C 11.382812 17.484375 11.496094 17.359375 11.640625 17.339844 L 11.683594 17.335938 Z M 24.984375 17.335938 C 25.152344 17.335938 25.285156 17.472656 25.285156 17.640625 C 25.285156 17.792969 25.171875 17.917969 25.023438 17.9375 L 24.984375 17.941406 L 23.773438 17.941406 C 23.609375 17.941406 23.472656 17.804688 23.472656 17.640625 C 23.472656 17.484375 23.585938 17.359375 23.734375 17.339844 L 23.773438 17.335938 Z M 18.71875 15.273438 C 20 15.273438 21.039062 16.3125 21.039062 17.589844 C 21.039062 17.757812 20.902344 17.894531 20.734375 17.894531 C 20.566406 17.894531 20.433594 17.757812 20.433594 17.589844 C 20.433594 16.644531 19.664062 15.878906 18.71875 15.878906 C 18.550781 15.878906 18.417969 15.742188 18.417969 15.574219 C 18.417969 15.410156 18.550781 15.273438 18.71875 15.273438 Z M 13.8125 12.695312 L 13.84375 12.722656 L 14.699219 13.578125 C 14.816406 13.695312 14.816406 13.886719 14.699219 14.003906 C 14.59375 14.113281 14.421875 14.121094 14.304688 14.03125 L 14.273438 14.003906 L 13.417969 13.148438 C 13.300781 13.03125 13.300781 12.839844 13.417969 12.722656 C 13.527344 12.613281 13.695312 12.605469 13.8125 12.695312 Z M 23.25 12.722656 C 23.359375 12.832031 23.367188 13 23.277344 13.121094 L 22.394531 14.003906 C 22.277344 14.125 22.085938 14.125 21.96875 14.003906 C 21.859375 13.898438 21.851562 13.726562 21.941406 13.609375 L 21.96875 13.578125 L 22.824219 12.722656 C 22.941406 12.605469 23.132812 12.605469 23.25 12.722656 Z M 18.332031 11.089844 C 18.488281 11.089844 18.613281 11.203125 18.632812 11.351562 L 18.636719 11.390625 L 18.636719 12.601562 C 18.636719 12.769531 18.5 12.902344 18.332031 12.902344 C 18.179688 12.902344 18.054688 12.789062 18.035156 12.640625 L 18.03125 12.601562 L 18.03125 11.390625 C 18.03125 11.226562 18.167969 11.089844 18.332031 11.089844 Z M 18.332031 11.089844 "/></g></g></svg>