<svg xmlns="http://www.w3.org/2000/svg" xmlns:xlink="http://www.w3.org/1999/xlink" width="50" zoomAndPan="magnify" viewBox="0 0 37.5 37.499999" height="50" preserveAspectRatio="xMidYMid meet" version="1.2"><defs><clipPath id="a2582079d0"><path d="M 0.507812 0 L 36.773438 0 L 36.773438 37 L 0.507812 37 Z M 0.507812 0 "/></clipPath></defs><g id="6b87ba2b6a"><g clip-rule="nonzero" clip-path="url(#a2582079d0)"><path style=" stroke:none;fill-rule:nonzero;fill:#0454c1;fill-opacity:1;" d="M 19.484375 35.410156 C 19.910156 35.410156 20.253906 35.753906 20.253906 36.183594 C 20.253906 36.574219 19.964844 36.898438 19.585938 36.949219 L 19.484375 36.953125 L 17.421875 36.953125 C 16.992188 36.953125 16.648438 36.609375 16.648438 36.183594 C 16.648438 35.789062 16.9375 35.46875 17.316406 35.414062 L 17.421875 35.410156 Z M 21.542969 33.347656 C 21.972656 33.347656 22.316406 33.691406 22.316406 34.121094 C 22.316406 34.511719 22.027344 34.835938 21.648438 34.886719 L 21.542969 34.894531 L 15.359375 34.894531 C 14.933594 34.894531 14.585938 34.546875 14.585938 34.121094 C 14.585938 33.730469 14.878906 33.40625 15.253906 33.355469 L 15.359375 33.347656 Z M 22.574219 31.285156 C 23.003906 31.285156 23.347656 31.632812 23.347656 32.058594 C 23.347656 32.449219 23.058594 32.773438 22.679688 32.824219 L 22.574219 32.832031 L 14.328125 32.832031 C 13.902344 32.832031 13.554688 32.484375 13.554688 32.058594 C 13.554688 31.667969 13.847656 31.34375 14.222656 31.292969 L 14.328125 31.285156 Z M 18.453125 7.578125 C 24.003906 7.578125 28.503906 12.078125 28.503906 17.628906 C 28.503906 19.996094 27.089844 22.558594 24.324219 25.34375 C 23.75 25.917969 23.410156 26.679688 23.355469 27.484375 L 23.347656 27.703125 L 23.347656 29.480469 C 23.347656 30.148438 22.839844 30.695312 22.191406 30.761719 L 22.058594 30.769531 L 14.84375 30.769531 C 14.175781 30.769531 13.628906 30.261719 13.5625 29.613281 L 13.554688 29.480469 L 13.554688 27.703125 C 13.554688 26.820312 13.207031 25.96875 12.582031 25.34375 C 9.8125 22.558594 8.402344 19.996094 8.402344 17.628906 C 8.402344 12.078125 12.902344 7.578125 18.453125 7.578125 Z M 9.203125 26.011719 C 9.480469 26.289062 9.503906 26.722656 9.269531 27.027344 L 9.203125 27.105469 L 7.015625 29.292969 C 6.714844 29.59375 6.222656 29.59375 5.921875 29.292969 C 5.644531 29.015625 5.621094 28.582031 5.851562 28.277344 L 5.921875 28.199219 L 8.109375 26.011719 C 8.410156 25.710938 8.898438 25.710938 9.203125 26.011719 Z M 28.804688 25.941406 L 28.882812 26.011719 L 31.070312 28.199219 C 31.371094 28.5 31.371094 28.992188 31.070312 29.292969 C 30.792969 29.570312 30.359375 29.59375 30.054688 29.363281 L 29.976562 29.292969 L 27.789062 27.105469 C 27.488281 26.804688 27.488281 26.3125 27.789062 26.011719 C 28.066406 25.734375 28.5 25.710938 28.804688 25.941406 Z M 18.453125 9.121094 C 13.753906 9.121094 9.949219 12.929688 9.949219 17.628906 C 9.949219 19.511719 11.171875 21.730469 13.679688 24.253906 C 14.527344 25.109375 15.03125 26.246094 15.09375 27.445312 L 15.101562 27.703125 L 15.101562 29.222656 L 21.800781 29.222656 L 21.800781 27.703125 C 21.804688 26.582031 22.1875 25.5 22.882812 24.636719 L 23.050781 24.441406 L 23.226562 24.253906 C 25.730469 21.730469 26.957031 19.511719 26.957031 17.628906 C 26.957031 12.929688 23.148438 9.121094 18.453125 9.121094 Z M 4.578125 15.945312 C 5.007812 15.945312 5.351562 16.292969 5.351562 16.71875 C 5.351562 17.109375 5.0625 17.433594 4.683594 17.484375 L 4.578125 17.492188 L 1.488281 17.492188 C 1.058594 17.492188 0.714844 17.144531 0.714844 16.71875 C 0.714844 16.328125 1.003906 16.003906 1.382812 15.953125 L 1.488281 15.945312 Z M 35.503906 15.945312 C 35.929688 15.945312 36.277344 16.292969 36.277344 16.71875 C 36.277344 17.109375 35.988281 17.433594 35.609375 17.484375 L 35.503906 17.492188 L 32.410156 17.492188 C 31.984375 17.492188 31.640625 17.144531 31.640625 16.71875 C 31.640625 16.328125 31.929688 16.003906 32.308594 15.953125 L 32.410156 15.945312 Z M 19.484375 10.667969 C 22.757812 10.667969 25.410156 13.324219 25.410156 16.597656 C 25.410156 17.023438 25.0625 17.371094 24.636719 17.371094 C 24.210938 17.371094 23.863281 17.023438 23.863281 16.597656 C 23.863281 14.175781 21.902344 12.214844 19.484375 12.214844 C 19.054688 12.214844 18.710938 11.867188 18.710938 11.441406 C 18.710938 11.015625 19.054688 10.667969 19.484375 10.667969 Z M 6.9375 4.074219 L 7.015625 4.144531 L 9.203125 6.332031 C 9.503906 6.632812 9.503906 7.125 9.203125 7.425781 C 8.925781 7.703125 8.492188 7.726562 8.1875 7.496094 L 8.109375 7.425781 L 5.921875 5.238281 C 5.621094 4.9375 5.621094 4.445312 5.921875 4.144531 C 6.199219 3.867188 6.632812 3.84375 6.9375 4.074219 Z M 31.070312 4.144531 C 31.347656 4.421875 31.371094 4.855469 31.136719 5.160156 L 31.070312 5.238281 L 28.882812 7.425781 C 28.582031 7.726562 28.089844 7.726562 27.789062 7.425781 C 27.511719 7.148438 27.488281 6.714844 27.71875 6.410156 L 27.789062 6.332031 L 29.976562 4.144531 C 30.277344 3.84375 30.765625 3.84375 31.070312 4.144531 Z M 18.496094 -0.03125 C 18.886719 -0.03125 19.210938 0.257812 19.261719 0.636719 L 19.269531 0.742188 L 19.269531 3.832031 C 19.269531 4.261719 18.921875 4.605469 18.496094 4.605469 C 18.105469 4.605469 17.78125 4.316406 17.730469 3.9375 L 17.722656 3.832031 L 17.722656 0.742188 C 17.722656 0.3125 18.070312 -0.03125 18.496094 -0.03125 Z M 18.496094 -0.03125 "/></g></g></svg>