<svg xmlns="http://www.w3.org/2000/svg" xmlns:xlink="http://www.w3.org/1999/xlink" width="50" zoomAndPan="magnify" viewBox="0 0 37.5 37.499999" height="50" preserveAspectRatio="xMidYMid meet" version="1.2"><defs><clipPath id="fed195438c"><path d="M 11.101562 12.070312 L 18 12.070312 L 18 24.652344 L 11.101562 24.652344 Z M 11.101562 12.070312 "/></clipPath><clipPath id="9975fcba4f"><path d="M 21 12.070312 L 25.90625 12.070312 L 25.90625 24.652344 L 21 24.652344 Z M 21 12.070312 "/></clipPath></defs><g id="064b353732"><g clip-rule="nonzero" clip-path="url(#fed195438c)"><path style=" stroke:none;fill-rule:nonzero;fill:#ffffff;fill-opacity:1;" d="M 17.320312 12.175781 C 17.050781 12.070312 16.824219 12.128906 16.632812 12.339844 L 14.007812 15.253906 L 11.785156 15.253906 C 11.613281 15.253906 11.46875 15.316406 11.34375 15.4375 C 11.222656 15.558594 11.164062 15.707031 11.164062 15.878906 L 11.164062 21.1875 C 11.164062 21.359375 11.222656 21.507812 11.34375 21.628906 C 11.46875 21.75 11.613281 21.8125 11.785156 21.8125 L 14.027344 21.8125 L 16.652344 24.4375 C 16.847656 24.636719 17.074219 24.679688 17.332031 24.574219 C 17.589844 24.46875 17.71875 24.277344 17.71875 23.996094 L 17.71875 12.757812 C 17.71875 12.472656 17.585938 12.277344 17.320312 12.175781 Z M 16.46875 22.488281 L 14.726562 20.746094 C 14.601562 20.625 14.457031 20.5625 14.285156 20.5625 L 12.410156 20.5625 L 12.410156 16.503906 L 14.285156 16.503906 C 14.46875 16.503906 14.625 16.4375 14.75 16.296875 L 16.46875 14.382812 L 16.46875 22.503906 Z M 16.46875 22.488281 "/></g><path style=" stroke:none;fill-rule:nonzero;fill:#ffffff;fill-opacity:1;" d="M 21.320312 14.007812 C 21.199219 13.886719 21.050781 13.824219 20.878906 13.824219 C 20.707031 13.824219 20.558594 13.886719 20.4375 14.007812 C 20.316406 14.132812 20.257812 14.28125 20.257812 14.453125 C 20.257812 14.625 20.320312 14.773438 20.441406 14.894531 C 20.671875 15.121094 20.878906 15.371094 21.0625 15.640625 C 21.242188 15.910156 21.394531 16.195312 21.519531 16.496094 C 21.648438 16.796875 21.742188 17.105469 21.804688 17.425781 C 21.867188 17.746094 21.902344 18.066406 21.902344 18.390625 C 21.902344 18.71875 21.867188 19.039062 21.804688 19.359375 C 21.742188 19.675781 21.648438 19.988281 21.519531 20.285156 C 21.394531 20.585938 21.242188 20.871094 21.0625 21.140625 C 20.878906 21.410156 20.671875 21.660156 20.441406 21.890625 C 20.367188 21.945312 20.304688 22.011719 20.261719 22.089844 C 20.214844 22.171875 20.191406 22.257812 20.183594 22.351562 C 20.175781 22.441406 20.1875 22.53125 20.222656 22.617188 C 20.253906 22.703125 20.304688 22.78125 20.371094 22.84375 C 20.4375 22.910156 20.511719 22.957031 20.601562 22.988281 C 20.6875 23.015625 20.777344 23.027344 20.867188 23.019531 C 20.960938 23.007812 21.046875 22.980469 21.125 22.933594 C 21.203125 22.886719 21.269531 22.824219 21.320312 22.75 C 21.609375 22.460938 21.867188 22.148438 22.09375 21.8125 C 22.316406 21.476562 22.507812 21.117188 22.664062 20.742188 C 22.820312 20.367188 22.9375 19.980469 23.015625 19.585938 C 23.097656 19.1875 23.136719 18.785156 23.136719 18.378906 C 23.136719 17.972656 23.097656 17.570312 23.015625 17.171875 C 22.9375 16.773438 22.820312 16.386719 22.664062 16.011719 C 22.507812 15.636719 22.316406 15.28125 22.09375 14.941406 C 21.867188 14.605469 21.609375 14.292969 21.320312 14.007812 Z M 21.320312 14.007812 "/><g clip-rule="nonzero" clip-path="url(#9975fcba4f)"><path style=" stroke:none;fill-rule:nonzero;fill:#ffffff;fill-opacity:1;" d="M 23 12.328125 C 22.882812 12.195312 22.734375 12.125 22.554688 12.121094 C 22.375 12.117188 22.222656 12.179688 22.097656 12.304688 C 21.972656 12.433594 21.910156 12.585938 21.914062 12.761719 C 21.921875 12.941406 21.988281 13.089844 22.121094 13.210938 C 22.460938 13.546875 22.765625 13.917969 23.035156 14.316406 C 23.304688 14.714844 23.53125 15.132812 23.714844 15.578125 C 23.898438 16.019531 24.039062 16.476562 24.132812 16.949219 C 24.226562 17.421875 24.273438 17.894531 24.273438 18.375 C 24.273438 18.855469 24.226562 19.332031 24.132812 19.804688 C 24.039062 20.273438 23.898438 20.730469 23.714844 21.175781 C 23.53125 21.617188 23.304688 22.039062 23.035156 22.4375 C 22.765625 22.835938 22.460938 23.203125 22.121094 23.542969 C 22 23.664062 21.9375 23.808594 21.9375 23.984375 C 21.9375 24.15625 21.996094 24.304688 22.117188 24.425781 C 22.238281 24.546875 22.386719 24.609375 22.558594 24.609375 C 22.730469 24.609375 22.878906 24.550781 23 24.429688 C 23.402344 24.03125 23.757812 23.601562 24.070312 23.132812 C 24.386719 22.667969 24.652344 22.175781 24.867188 21.65625 C 25.085938 21.136719 25.246094 20.601562 25.359375 20.050781 C 25.46875 19.496094 25.523438 18.941406 25.523438 18.378906 C 25.523438 17.816406 25.46875 17.257812 25.359375 16.707031 C 25.246094 16.15625 25.085938 15.621094 24.867188 15.101562 C 24.652344 14.582031 24.386719 14.085938 24.070312 13.621094 C 23.757812 13.15625 23.402344 12.722656 23 12.328125 Z M 23 12.328125 "/></g><path style=" stroke:none;fill-rule:nonzero;fill:#ffffff;fill-opacity:1;" d="M 19.5625 15.742188 C 19.4375 15.621094 19.292969 15.558594 19.117188 15.5625 C 18.945312 15.5625 18.800781 15.625 18.675781 15.746094 C 18.554688 15.867188 18.496094 16.015625 18.496094 16.1875 C 18.496094 16.359375 18.558594 16.507812 18.679688 16.628906 C 18.914062 16.859375 19.09375 17.128906 19.21875 17.429688 C 19.347656 17.734375 19.410156 18.050781 19.410156 18.378906 C 19.410156 18.707031 19.347656 19.023438 19.21875 19.328125 C 19.09375 19.628906 18.914062 19.898438 18.679688 20.128906 C 18.558594 20.25 18.496094 20.398438 18.496094 20.570312 C 18.496094 20.742188 18.554688 20.890625 18.675781 21.011719 C 18.800781 21.136719 18.945312 21.195312 19.117188 21.199219 C 19.292969 21.199219 19.4375 21.136719 19.5625 21.015625 C 19.914062 20.667969 20.183594 20.265625 20.375 19.808594 C 20.566406 19.351562 20.660156 18.875 20.660156 18.378906 C 20.660156 17.882812 20.566406 17.40625 20.375 16.949219 C 20.183594 16.492188 19.914062 16.089844 19.5625 15.742188 Z M 19.5625 15.742188 "/></g></svg>