<svg xmlns="http://www.w3.org/2000/svg" xmlns:xlink="http://www.w3.org/1999/xlink" width="50" zoomAndPan="magnify" viewBox="0 0 37.5 37.499999" height="50" preserveAspectRatio="xMidYMid meet" version="1.2"><defs><clipPath id="598a51143a"><path d="M 0 2.421875 L 17 2.421875 L 17 34.246094 L 0 34.246094 Z M 0 2.421875 "/></clipPath><clipPath id="4db772f0e4"><path d="M 27 2.421875 L 37 2.421875 L 37 34.246094 L 27 34.246094 Z M 27 2.421875 "/></clipPath></defs><g id="d46263aabc"><g clip-rule="nonzero" clip-path="url(#598a51143a)"><path style=" stroke:none;fill-rule:nonzero;fill:#ffffff;fill-opacity:1;" d="M 15.71875 2.683594 C 15.414062 2.566406 15.105469 2.546875 14.785156 2.621094 C 14.46875 2.699219 14.199219 2.859375 13.984375 3.101562 L 7.339844 10.476562 L 1.726562 10.476562 C 1.515625 10.476562 1.316406 10.515625 1.121094 10.597656 C 0.929688 10.679688 0.757812 10.792969 0.609375 10.941406 C 0.460938 11.089844 0.347656 11.257812 0.265625 11.453125 C 0.1875 11.644531 0.148438 11.847656 0.148438 12.058594 L 0.148438 25.480469 C 0.148438 25.691406 0.1875 25.894531 0.265625 26.085938 C 0.347656 26.28125 0.460938 26.449219 0.609375 26.597656 C 0.757812 26.746094 0.929688 26.859375 1.121094 26.941406 C 1.316406 27.019531 1.515625 27.0625 1.726562 27.0625 L 7.386719 27.0625 L 14.03125 33.703125 C 14.253906 33.929688 14.523438 34.074219 14.839844 34.140625 C 15.152344 34.203125 15.457031 34.171875 15.753906 34.050781 C 16.050781 33.929688 16.285156 33.734375 16.464844 33.46875 C 16.640625 33.203125 16.730469 32.910156 16.730469 32.589844 L 16.730469 4.160156 C 16.730469 3.832031 16.640625 3.535156 16.453125 3.265625 C 16.269531 2.996094 16.023438 2.800781 15.71875 2.683594 Z M 13.570312 28.773438 L 9.15625 24.359375 C 8.847656 24.054688 8.476562 23.902344 8.042969 23.902344 L 3.304688 23.902344 L 3.304688 13.636719 L 8.042969 13.636719 C 8.515625 13.636719 8.90625 13.464844 9.21875 13.113281 L 13.570312 8.273438 L 13.570312 28.808594 Z M 13.570312 28.773438 "/></g><path style=" stroke:none;fill-rule:nonzero;fill:#ffffff;fill-opacity:1;" d="M 25.84375 7.320312 C 25.695312 7.171875 25.523438 7.058594 25.332031 6.976562 C 25.136719 6.898438 24.933594 6.859375 24.726562 6.859375 C 24.515625 6.859375 24.3125 6.898438 24.121094 6.980469 C 23.925781 7.0625 23.757812 7.175781 23.609375 7.324219 C 23.460938 7.472656 23.347656 7.644531 23.265625 7.839844 C 23.1875 8.035156 23.148438 8.234375 23.148438 8.445312 C 23.148438 8.65625 23.191406 8.855469 23.273438 9.050781 C 23.351562 9.242188 23.46875 9.414062 23.617188 9.5625 C 24.203125 10.140625 24.722656 10.769531 25.183594 11.453125 C 25.644531 12.136719 26.03125 12.855469 26.347656 13.617188 C 26.664062 14.375 26.902344 15.160156 27.066406 15.964844 C 27.226562 16.773438 27.308594 17.585938 27.308594 18.410156 C 27.308594 19.234375 27.226562 20.046875 27.066406 20.855469 C 26.902344 21.660156 26.664062 22.445312 26.347656 23.203125 C 26.03125 23.964844 25.644531 24.683594 25.183594 25.367188 C 24.722656 26.050781 24.203125 26.679688 23.617188 27.257812 C 23.425781 27.394531 23.277344 27.566406 23.160156 27.769531 C 23.046875 27.972656 22.980469 28.191406 22.964844 28.421875 C 22.945312 28.65625 22.980469 28.882812 23.0625 29.101562 C 23.144531 29.320312 23.269531 29.507812 23.4375 29.671875 C 23.601562 29.835938 23.796875 29.957031 24.015625 30.03125 C 24.238281 30.109375 24.464844 30.136719 24.695312 30.113281 C 24.929688 30.089844 25.144531 30.019531 25.347656 29.898438 C 25.546875 29.78125 25.710938 29.625 25.84375 29.429688 C 26.207031 29.070312 26.550781 28.691406 26.875 28.292969 C 27.203125 27.898438 27.507812 27.488281 27.792969 27.0625 C 28.078125 26.636719 28.339844 26.199219 28.582031 25.746094 C 28.824219 25.296875 29.042969 24.832031 29.242188 24.359375 C 29.4375 23.886719 29.609375 23.40625 29.757812 22.914062 C 29.90625 22.425781 30.03125 21.929688 30.132812 21.425781 C 30.230469 20.921875 30.308594 20.417969 30.359375 19.90625 C 30.40625 19.398438 30.433594 18.886719 30.433594 18.375 C 30.433594 17.863281 30.40625 17.351562 30.359375 16.839844 C 30.308594 16.332031 30.230469 15.824219 30.132812 15.324219 C 30.03125 14.820312 29.90625 14.324219 29.757812 13.835938 C 29.609375 13.34375 29.4375 12.863281 29.242188 12.390625 C 29.042969 11.917969 28.824219 11.453125 28.582031 11.003906 C 28.339844 10.550781 28.078125 10.113281 27.792969 9.6875 C 27.507812 9.261719 27.203125 8.851562 26.875 8.453125 C 26.550781 8.058594 26.207031 7.679688 25.84375 7.320312 Z M 25.84375 7.320312 "/><g clip-rule="nonzero" clip-path="url(#4db772f0e4)"><path style=" stroke:none;fill-rule:nonzero;fill:#ffffff;fill-opacity:1;" d="M 30.09375 3.070312 C 29.949219 2.910156 29.777344 2.785156 29.578125 2.695312 C 29.382812 2.605469 29.175781 2.558594 28.960938 2.554688 C 28.746094 2.546875 28.535156 2.585938 28.335938 2.667969 C 28.136719 2.746094 27.957031 2.863281 27.804688 3.015625 C 27.652344 3.171875 27.535156 3.347656 27.457031 3.546875 C 27.375 3.75 27.339844 3.957031 27.34375 4.175781 C 27.351562 4.390625 27.398438 4.597656 27.488281 4.792969 C 27.578125 4.988281 27.707031 5.160156 27.867188 5.304688 C 28.296875 5.730469 28.703125 6.179688 29.089844 6.644531 C 29.476562 7.113281 29.839844 7.597656 30.179688 8.097656 C 30.515625 8.601562 30.828125 9.121094 31.117188 9.652344 C 31.402344 10.1875 31.664062 10.734375 31.898438 11.292969 C 32.128906 11.851562 32.335938 12.421875 32.511719 13 C 32.6875 13.582031 32.835938 14.167969 32.957031 14.761719 C 33.074219 15.355469 33.164062 15.953125 33.222656 16.558594 C 33.285156 17.160156 33.3125 17.765625 33.3125 18.371094 C 33.3125 18.976562 33.285156 19.582031 33.222656 20.183594 C 33.164062 20.785156 33.074219 21.386719 32.957031 21.980469 C 32.835938 22.574219 32.6875 23.160156 32.511719 23.742188 C 32.335938 24.320312 32.128906 24.890625 31.898438 25.449219 C 31.664062 26.007812 31.402344 26.554688 31.117188 27.089844 C 30.828125 27.621094 30.515625 28.140625 30.179688 28.640625 C 29.839844 29.144531 29.476562 29.628906 29.089844 30.097656 C 28.703125 30.5625 28.296875 31.011719 27.867188 31.4375 C 27.71875 31.585938 27.601562 31.753906 27.523438 31.949219 C 27.441406 32.140625 27.398438 32.34375 27.398438 32.550781 C 27.398438 32.761719 27.4375 32.964844 27.515625 33.15625 C 27.597656 33.351562 27.710938 33.523438 27.859375 33.671875 C 28.003906 33.820312 28.175781 33.933594 28.371094 34.015625 C 28.5625 34.097656 28.765625 34.136719 28.972656 34.136719 C 29.183594 34.140625 29.386719 34.097656 29.578125 34.019531 C 29.773438 33.941406 29.945312 33.828125 30.09375 33.679688 C 30.597656 33.179688 31.074219 32.65625 31.527344 32.109375 C 31.980469 31.5625 32.402344 30.996094 32.800781 30.40625 C 33.195312 29.816406 33.5625 29.210938 33.898438 28.585938 C 34.234375 27.960938 34.539062 27.320312 34.8125 26.664062 C 35.085938 26.007812 35.324219 25.34375 35.53125 24.664062 C 35.738281 23.984375 35.914062 23.296875 36.050781 22.601562 C 36.191406 21.90625 36.296875 21.203125 36.367188 20.5 C 36.4375 19.792969 36.472656 19.085938 36.472656 18.375 C 36.472656 17.664062 36.4375 16.957031 36.367188 16.25 C 36.296875 15.542969 36.191406 14.84375 36.050781 14.148438 C 35.914062 13.453125 35.738281 12.765625 35.53125 12.085938 C 35.324219 11.40625 35.085938 10.738281 34.8125 10.085938 C 34.539062 9.429688 34.234375 8.789062 33.898438 8.164062 C 33.5625 7.539062 33.195312 6.933594 32.800781 6.34375 C 32.402344 5.753906 31.980469 5.1875 31.527344 4.640625 C 31.074219 4.09375 30.597656 3.570312 30.09375 3.070312 Z M 30.09375 3.070312 "/></g><path style=" stroke:none;fill-rule:nonzero;fill:#ffffff;fill-opacity:1;" d="M 21.390625 11.710938 C 21.242188 11.5625 21.070312 11.449219 20.875 11.367188 C 20.683594 11.289062 20.480469 11.25 20.269531 11.25 C 20.0625 11.25 19.859375 11.292969 19.667969 11.371094 C 19.472656 11.453125 19.304688 11.570312 19.15625 11.71875 C 19.007812 11.867188 18.894531 12.039062 18.816406 12.230469 C 18.734375 12.425781 18.695312 12.625 18.695312 12.835938 C 18.695312 13.046875 18.738281 13.246094 18.820312 13.441406 C 18.898438 13.632812 19.015625 13.804688 19.164062 13.953125 C 19.457031 14.242188 19.714844 14.558594 19.945312 14.898438 C 20.175781 15.238281 20.371094 15.601562 20.527344 15.980469 C 20.6875 16.359375 20.808594 16.753906 20.886719 17.15625 C 20.96875 17.558594 21.007812 17.96875 21.007812 18.378906 C 21.007812 18.789062 20.96875 19.199219 20.886719 19.601562 C 20.808594 20.003906 20.6875 20.398438 20.527344 20.777344 C 20.371094 21.15625 20.175781 21.515625 19.945312 21.859375 C 19.714844 22.199219 19.457031 22.515625 19.164062 22.804688 C 19.015625 22.953125 18.898438 23.121094 18.820312 23.316406 C 18.738281 23.507812 18.695312 23.710938 18.695312 23.921875 C 18.695312 24.128906 18.734375 24.332031 18.8125 24.527344 C 18.894531 24.71875 19.007812 24.890625 19.15625 25.039062 C 19.300781 25.1875 19.472656 25.304688 19.667969 25.386719 C 19.859375 25.464844 20.0625 25.507812 20.269531 25.507812 C 20.480469 25.507812 20.683594 25.46875 20.875 25.390625 C 21.070312 25.308594 21.242188 25.195312 21.390625 25.046875 C 21.832031 24.609375 22.222656 24.136719 22.570312 23.621094 C 22.917969 23.105469 23.207031 22.5625 23.449219 21.992188 C 23.6875 21.417969 23.867188 20.828125 23.988281 20.21875 C 24.109375 19.613281 24.171875 19 24.171875 18.378906 C 24.171875 17.757812 24.109375 17.144531 23.988281 16.535156 C 23.867188 15.929688 23.6875 15.339844 23.449219 14.765625 C 23.207031 14.195312 22.917969 13.648438 22.570312 13.136719 C 22.222656 12.621094 21.832031 12.144531 21.390625 11.710938 Z M 21.390625 11.710938 "/></g></svg>